<svg width="20" height="20" viewBox="0 0 20 20" fill="none" xmlns="http://www.w3.org/2000/svg">
<circle cx="10.5" cy="10.5" r="7.5" fill="white"/>
<mask id="mask0_128_294" style="mask-type:alpha" maskUnits="userSpaceOnUse" x="0" y="0" width="20" height="20">
<rect width="20" height="20" fill="#0A973A"/>
</mask>
<g mask="url(#mask0_128_294)">
<path d="M9.2199 14.1665H10.8819V10.8332H14.2058V9.1665H10.8819V5.83317H9.2199V9.1665H5.89599V10.8332H9.2199V14.1665ZM10.0509 18.3332C8.90136 18.3332 7.82109 18.1144 6.81006 17.6769C5.79904 17.2394 4.91958 16.6457 4.1717 15.8957C3.42382 15.1457 2.83175 14.2637 2.39549 13.2498C1.95922 12.2359 1.74109 11.1526 1.74109 9.99984C1.74109 8.84706 1.95922 7.76373 2.39549 6.74984C2.83175 5.73595 3.42382 4.854 4.1717 4.104C4.91958 3.354 5.79904 2.76025 6.81006 2.32275C7.82109 1.88525 8.90136 1.6665 10.0509 1.6665C11.2004 1.6665 12.2807 1.88525 13.2917 2.32275C14.3027 2.76025 15.1822 3.354 15.9301 4.104C16.6779 4.854 17.27 5.73595 17.7063 6.74984C18.1425 7.76373 18.3607 8.84706 18.3607 9.99984C18.3607 11.1526 18.1425 12.2359 17.7063 13.2498C17.27 14.2637 16.6779 15.1457 15.9301 15.8957C15.1822 16.6457 14.3027 17.2394 13.2917 17.6769C12.2807 18.1144 11.2004 18.3332 10.0509 18.3332ZM10.0509 16.6665C11.9067 16.6665 13.4787 16.0207 14.7667 14.729C16.0547 13.4373 16.6987 11.8609 16.6987 9.99984C16.6987 8.13873 16.0547 6.56234 14.7667 5.27067C13.4787 3.979 11.9067 3.33317 10.0509 3.33317C8.19503 3.33317 6.62309 3.979 5.33507 5.27067C4.04706 6.56234 3.40305 8.13873 3.40305 9.99984C3.40305 11.8609 4.04706 13.4373 5.33507 14.729C6.62309 16.0207 8.19503 16.6665 10.0509 16.6665Z" fill="#0A973A"/>
</g>
</svg>
