<svg width="40" height="40" viewBox="0 0 40 40" fill="none" xmlns="http://www.w3.org/2000/svg">
<circle cx="20" cy="20" r="20" fill="white"/>
<path fill-rule="evenodd" clip-rule="evenodd" d="M19.6199 14.8524C19.8116 14.9779 20.0688 14.9242 20.1943 14.7325L20.1944 14.7326L20.1945 14.7324C21.2928 13.0546 23.5433 12.5847 25.2212 13.683C26.899 14.7813 27.3688 17.0319 26.2705 18.7097L26.2704 18.7098L26.2705 18.7099C26.145 18.9016 26.1987 19.1588 26.3904 19.2843C26.5822 19.4098 26.8394 19.3561 26.9649 19.1644C26.9658 19.163 26.9667 19.1616 26.9676 19.1602C28.3135 17.0993 27.7357 14.3371 25.6757 12.9887C23.6172 11.6412 20.857 12.215 19.5056 14.2694L19.4999 14.2779C19.3744 14.4697 19.4281 14.7269 19.6199 14.8524Z" fill="#FFD600"/>
<path fill-rule="evenodd" clip-rule="evenodd" d="M18.3346 19.6403C17.548 18.8577 16.5423 18.4288 15.5156 18.3537C15.6303 16.4518 17.2091 14.9447 19.1399 14.9447C21.1453 14.9447 22.7709 16.5704 22.7709 18.5757V18.5758L22.771 18.5758C22.771 18.6499 22.7905 18.7196 22.8246 18.7798C22.8949 18.984 23.1124 19.1018 23.3242 19.045L23.325 19.0448C25.2618 18.5263 27.2523 19.6758 27.7713 21.6126C28.2903 23.5496 27.1408 25.5406 25.2038 26.0596L25.2038 26.0597C24.9825 26.119 24.8511 26.3466 24.9104 26.5679C24.9698 26.7893 25.1973 26.9207 25.4187 26.8613L25.4275 26.8589C27.8019 26.2175 29.2099 23.7745 28.573 21.3977C27.9774 19.1748 25.8037 17.796 23.5802 18.1437C23.3629 15.8827 21.4578 14.1149 19.1399 14.1149C16.7451 14.1149 14.791 16.002 14.6836 18.3702C13.7155 18.4798 12.7764 18.9059 12.0339 19.6484C10.2918 21.3905 10.2918 24.215 12.0339 25.9571L12.0339 25.957L12.0341 25.9571C12.1961 26.1192 12.4589 26.1192 12.6209 25.9571C12.783 25.7951 12.783 25.5323 12.6209 25.3703L12.6134 25.3629C11.2027 23.9443 11.2052 21.6508 12.6207 20.2352C14.0387 18.8172 16.3377 18.8172 17.7557 20.2352L17.7558 20.2351L17.756 20.2352C17.9181 20.3973 18.1808 20.3973 18.3429 20.2352C18.5049 20.0732 18.5049 19.8104 18.3429 19.6484L18.3346 19.6403Z" fill="#00AAD0"/>
</svg>
