<svg width="23" height="22" viewBox="0 0 23 22" fill="none" xmlns="http://www.w3.org/2000/svg">
<path fill-rule="evenodd" clip-rule="evenodd" d="M14.2578 16.613C14.5895 16.8216 14.6816 17.2479 14.4635 17.5652L12.1006 21.0027C11.8825 21.3199 11.4368 21.408 11.1051 21.1994C10.7735 20.9908 10.6814 20.5645 10.8995 20.2473L13.2623 16.8098C13.4804 16.4925 13.9261 16.4044 14.2578 16.613Z" fill="white"/>
<path fill-rule="evenodd" clip-rule="evenodd" d="M12.1019 13.1757C12.4334 13.3845 12.5252 13.8109 12.307 14.128L9.46791 18.253C9.24963 18.5701 8.80391 18.658 8.47235 18.4492C8.1408 18.2404 8.04896 17.8141 8.26724 17.4969L11.1063 13.3719C11.3246 13.0548 11.7703 12.9669 12.1019 13.1757Z" fill="white"/>
<path fill-rule="evenodd" clip-rule="evenodd" d="M15.0673 2.84908C14.0216 2.65012 12.9377 2.75223 11.9527 3.1425C10.9677 3.53276 10.1258 4.19365 9.53348 5.04159C8.94115 5.88953 8.625 6.88644 8.625 7.90625C8.625 8.28595 8.3032 8.59375 7.90625 8.59375C7.5093 8.59375 7.1875 8.28595 7.1875 7.90625C7.1875 7.56871 7.21484 7.23315 7.26863 6.90241C7.12414 6.88347 6.97818 6.87427 6.83182 6.87499L6.82812 6.875C5.97032 6.875 5.14764 7.20095 4.54108 7.78114C3.93451 8.36133 3.59375 9.14824 3.59375 9.96875C3.59375 10.7893 3.93451 11.5762 4.54108 12.1564C5.14764 12.7366 5.97032 13.0625 6.82812 13.0625H14.0156C15.0818 13.0625 16.124 12.7601 17.0105 12.1935C17.897 11.6269 18.5879 10.8216 18.9959 9.87946C19.4039 8.93728 19.5107 7.90053 19.3027 6.90032C19.0947 5.9001 18.5813 4.98135 17.8274 4.26023C17.0735 3.53912 16.113 3.04803 15.0673 2.84908ZM7.64059 5.56673C7.82143 5.11587 8.05489 4.68332 8.33825 4.27769C9.08853 3.20363 10.1549 2.3665 11.4026 1.87216C12.6503 1.37783 14.0232 1.24849 15.3477 1.5005C16.6723 1.75251 17.8889 2.37455 18.8438 3.28796C19.7988 4.20137 20.4491 5.36513 20.7125 6.63207C20.976 7.89901 20.8408 9.21222 20.324 10.4057C19.8072 11.5991 18.932 12.6191 17.8091 13.3368C16.6862 14.0545 15.3661 14.4375 14.0156 14.4375H6.82812C5.58907 14.4375 4.40076 13.9667 3.52461 13.1286C2.64846 12.2906 2.15625 11.1539 2.15625 9.96875C2.15625 8.78357 2.64846 7.64692 3.52461 6.80887C4.40033 5.97123 5.5879 5.50047 6.8263 5.5" fill="white"/>
</svg>
