<svg width="23" height="23" viewBox="0 0 23 23" fill="none" xmlns="http://www.w3.org/2000/svg">
<path fill-rule="evenodd" clip-rule="evenodd" d="M11.9122 0.848677L11.5 1.4375L11.0878 0.848677C11.3353 0.675441 11.6647 0.675441 11.9122 0.848677ZM11.5 2.33594C11.3248 2.4726 11.101 2.65257 10.8425 2.87235C10.1886 3.42809 9.31771 4.2339 8.44862 5.23335C6.69289 7.25244 5.03125 9.96191 5.03125 12.9375C5.03125 14.6531 5.71278 16.2985 6.9259 17.5116C8.13903 18.7247 9.78438 19.4062 11.5 19.4062C13.2156 19.4062 14.861 18.7247 16.0741 17.5116C17.2872 16.2985 17.9688 14.6531 17.9688 12.9375C17.9688 9.96191 16.3071 7.25244 14.5514 5.23335C13.6823 4.2339 12.8114 3.42809 12.1575 2.87235C11.899 2.65257 11.6752 2.4726 11.5 2.33594ZM11.0874 0.848978C11.0876 0.848818 11.0878 0.848677 11.5 1.4375C11.9122 0.848677 11.9124 0.848818 11.9126 0.848978L11.9132 0.849395L11.9149 0.850577L11.9202 0.854324L11.9385 0.867323C11.954 0.878421 11.9762 0.894369 12.0045 0.915058C12.0612 0.95643 12.1426 1.01679 12.2453 1.09526C12.4506 1.25215 12.7411 1.48175 13.0885 1.77706C13.7824 2.36683 14.7083 3.22313 15.6361 4.29009C17.4741 6.40381 19.4062 9.44434 19.4062 12.9375C19.4062 15.0344 18.5733 17.0454 17.0906 18.5281C15.6079 20.0108 13.5969 20.8438 11.5 20.8438C9.40313 20.8438 7.39215 20.0108 5.90944 18.5281C4.42673 17.0454 3.59375 15.0344 3.59375 12.9375C3.59375 9.44434 5.52586 6.40381 7.36388 4.29009C8.29167 3.22313 9.21761 2.36683 9.91146 1.77706C10.2589 1.48175 10.5494 1.25215 10.7547 1.09526C10.8574 1.01679 10.9388 0.95643 10.9955 0.915058C11.0238 0.894369 11.046 0.878421 11.0615 0.867323L11.0798 0.854324L11.0851 0.850577L11.0868 0.849395L11.0874 0.848978Z" fill="white"/>
<path fill-rule="evenodd" clip-rule="evenodd" d="M15.8715 12.9569C16.2627 13.0243 16.5253 13.396 16.4579 13.7872C16.2815 14.812 15.7914 15.7567 15.0552 16.491C14.319 17.2253 13.373 17.713 12.3478 17.8868C11.9565 17.9532 11.5854 17.6897 11.5191 17.2983C11.4527 16.9069 11.7162 16.5359 12.1076 16.4695C12.8393 16.3455 13.5146 15.9974 14.04 15.4732C14.5655 14.9491 14.9153 14.2748 15.0413 13.5433C15.1086 13.1521 15.4803 12.8896 15.8715 12.9569Z" fill="white"/>
</svg>
