<svg width="25" height="24" viewBox="0 0 25 24" fill="none" xmlns="http://www.w3.org/2000/svg">
<mask id="mask0_211_408" style="mask-type:alpha" maskUnits="userSpaceOnUse" x="0" y="0" width="25" height="24">
<rect x="0.5" width="24" height="24" fill="#D9D9D9"/>
</mask>
<g mask="url(#mask0_211_408)">
<path d="M1.5 17V13H9.7L3.5 8.1V11H1.5V5H2.5L13.5 11.05V4H18.5L23.5 10V17H21C21 17.8333 20.7083 18.5417 20.125 19.125C19.5417 19.7083 18.8333 20 18 20C17.1667 20 16.4583 19.7083 15.875 19.125C15.2917 18.5417 15 17.8333 15 17H9.5C9.5 17.8333 9.20833 18.5417 8.625 19.125C8.04167 19.7083 7.33333 20 6.5 20C5.66667 20 4.95833 19.7083 4.375 19.125C3.79167 18.5417 3.5 17.8333 3.5 17H1.5ZM6.5 18.5C6.93333 18.5 7.29167 18.3583 7.575 18.075C7.85833 17.7917 8 17.4333 8 17C8 16.5667 7.85833 16.2083 7.575 15.925C7.29167 15.6417 6.93333 15.5 6.5 15.5C6.06667 15.5 5.70833 15.6417 5.425 15.925C5.14167 16.2083 5 16.5667 5 17C5 17.4333 5.14167 17.7917 5.425 18.075C5.70833 18.3583 6.06667 18.5 6.5 18.5ZM18 18.5C18.4333 18.5 18.7917 18.3583 19.075 18.075C19.3583 17.7917 19.5 17.4333 19.5 17C19.5 16.5667 19.3583 16.2083 19.075 15.925C18.7917 15.6417 18.4333 15.5 18 15.5C17.5667 15.5 17.2083 15.6417 16.925 15.925C16.6417 16.2083 16.5 16.5667 16.5 17C16.5 17.4333 16.6417 17.7917 16.925 18.075C17.2083 18.3583 17.5667 18.5 18 18.5ZM15.5 10H20.9L17.55 6H15.5V10Z" fill="#0A973A"/>
</g>
</svg>
