<svg width="71" height="19" viewBox="0 0 71 19" fill="none" xmlns="http://www.w3.org/2000/svg">
<path d="M1.45312 9.21094C1.45312 9.11719 1.45312 8.96875 1.45312 8.76562C1.46875 8.54688 1.47656 8.32031 1.47656 8.08594C1.49219 7.85156 1.5 7.625 1.5 7.40625C1.51562 7.1875 1.52344 7.03125 1.52344 6.9375C1.69531 6.6875 1.91406 6.48438 2.17969 6.32812C2.46094 6.17188 2.74219 6.04688 3.02344 5.95312C3.07031 6.79688 3.20312 7.69531 3.42188 8.64844C3.64062 9.60156 3.875 10.5625 4.125 11.5312C4.375 12.4844 4.59375 13.4297 4.78125 14.3672C4.98438 15.3047 5.08594 16.1797 5.08594 16.9922C5.08594 17.6953 4.72656 18.0469 4.00781 18.0469C3.57031 18.0469 3.20312 17.8672 2.90625 17.5078C2.60938 17.1484 2.36719 16.6953 2.17969 16.1484C2.00781 15.5859 1.86719 14.9688 1.75781 14.2969C1.64844 13.6094 1.57031 12.9375 1.52344 12.2812C1.49219 11.625 1.46875 11.0234 1.45312 10.4766C1.45312 9.92969 1.45312 9.50781 1.45312 9.21094ZM1.78125 0.421875C2.07812 0.546875 2.32812 0.75 2.53125 1.03125C2.73438 1.3125 2.82031 1.57031 2.78906 1.80469C2.77344 2.02344 2.60156 2.17969 2.27344 2.27344C1.94531 2.35156 1.39844 2.25781 0.632812 1.99219C0.632812 1.57031 0.710938 1.20312 0.867188 0.890625C1.03906 0.578125 1.34375 0.421875 1.78125 0.421875ZM15.0938 3.9375C15.0312 3.71875 14.9062 3.57031 14.7188 3.49219C14.5469 3.41406 14.3516 3.375 14.1328 3.375C13.9297 3.35938 13.7266 3.36719 13.5234 3.39844C13.3203 3.42969 13.1641 3.44531 13.0547 3.44531C12.7891 3.42969 12.3281 3.39844 11.6719 3.35156C11.0156 3.30469 10.3047 3.25781 9.53906 3.21094C8.78906 3.14844 8.08594 3.09375 7.42969 3.04688C6.77344 2.98438 6.3125 2.94531 6.04688 2.92969C6.04688 2.89844 6.03906 2.82031 6.02344 2.69531C6.00781 2.57031 6 2.48438 6 2.4375C6 2.21875 6.01562 2.02344 6.04688 1.85156C6.09375 1.67969 6.25 1.54688 6.51562 1.45312C7.98438 1.48438 9.42969 1.47656 10.8516 1.42969C12.2891 1.38281 13.7188 1.32031 15.1406 1.24219C16.5781 1.14844 18.0078 1.0625 19.4297 0.984375C20.8672 0.90625 22.3125 0.867188 23.7656 0.867188C23.7656 1.46094 23.625 1.89844 23.3438 2.17969C23.0625 2.44531 22.7109 2.625 22.2891 2.71875C21.8828 2.8125 21.4297 2.85156 20.9297 2.83594C20.4297 2.82031 19.9453 2.82812 19.4766 2.85938C19.0234 2.89062 18.6172 2.98438 18.2578 3.14062C17.9141 3.28125 17.6875 3.54688 17.5781 3.9375C17.5625 4.03125 17.5469 4.21094 17.5312 4.47656C17.5156 4.74219 17.5 5.02344 17.4844 5.32031C17.4844 5.61719 17.4766 5.89844 17.4609 6.16406C17.4609 6.41406 17.4609 6.59375 17.4609 6.70312C17.4609 7.59375 17.5703 8.47656 17.7891 9.35156C18.0234 10.2109 18.2734 11.0703 18.5391 11.9297C18.8203 12.7734 19.0703 13.625 19.2891 14.4844C19.5234 15.3281 19.6406 16.1875 19.6406 17.0625C19.6406 17.7188 19.2656 18.0469 18.5156 18.0469C18.0625 18.0469 17.6562 17.7344 17.2969 17.1094C16.9531 16.4844 16.6484 15.6875 16.3828 14.7188C16.1328 13.75 15.9219 12.6953 15.75 11.5547C15.5938 10.4141 15.4609 9.32031 15.3516 8.27344C15.2578 7.22656 15.1875 6.30469 15.1406 5.50781C15.1094 4.71094 15.0938 4.1875 15.0938 3.9375ZM35.1562 14.9766C34.5625 15.3828 34.0469 15.75 33.6094 16.0781C33.1875 16.3906 32.7734 16.6562 32.3672 16.875C31.9609 17.0938 31.5234 17.2578 31.0547 17.3672C30.6016 17.4766 30.0391 17.5312 29.3672 17.5312C27.9141 17.5312 26.8359 17.1484 26.1328 16.3828C25.4297 15.6016 25.0781 14.4453 25.0781 12.9141C25.0781 12.3203 25.1562 11.7031 25.3125 11.0625C25.4688 10.4219 25.6953 9.78906 25.9922 9.16406C26.3047 8.52344 26.6719 7.92188 27.0938 7.35938C27.5156 6.78125 27.9922 6.27344 28.5234 5.83594C29.0547 5.39844 29.6172 5.05469 30.2109 4.80469C30.8203 4.53906 31.4609 4.40625 32.1328 4.40625C33.2578 4.51562 34.1406 4.79688 34.7812 5.25C35.4219 5.6875 35.9062 6.25781 36.2344 6.96094C36.5625 7.64844 36.7891 8.42188 36.9141 9.28125C37.0391 10.125 37.1328 11 37.1953 11.9062C37.2734 12.8125 37.3672 13.7188 37.4766 14.625C37.5859 15.5312 37.8125 16.3672 38.1562 17.1328C37.9531 17.6484 37.7578 18.0078 37.5703 18.2109C37.3984 18.4297 37.2031 18.4688 36.9844 18.3281C36.7656 18.1875 36.5078 17.8438 36.2109 17.2969C35.9297 16.75 35.5781 15.9766 35.1562 14.9766ZM27.0703 12.9609C27.0703 13.8516 27.2344 14.5078 27.5625 14.9297C27.9062 15.3359 28.5078 15.5391 29.3672 15.5391C30.0078 15.5391 30.6172 15.4297 31.1953 15.2109C31.7891 14.9766 32.3047 14.6641 32.7422 14.2734C33.1797 13.8672 33.5312 13.3828 33.7969 12.8203C34.0625 12.2578 34.1953 11.6328 34.1953 10.9453C34.1953 10.6641 34.2031 10.2734 34.2188 9.77344C34.2344 9.25781 34.2031 8.75 34.125 8.25C34.0469 7.75 33.8984 7.32031 33.6797 6.96094C33.4609 6.58594 33.1328 6.39844 32.6953 6.39844C31.8828 6.39844 31.1328 6.60938 30.4453 7.03125C29.7578 7.4375 29.1641 7.96094 28.6641 8.60156C28.1641 9.24219 27.7734 9.95312 27.4922 10.7344C27.2109 11.5 27.0703 12.2422 27.0703 12.9609ZM39.6328 8.15625C39.6328 8.01562 39.6406 7.875 39.6562 7.73438C39.6719 7.57812 39.7031 7.44531 39.75 7.33594C39.7969 7.21094 39.8672 7.10938 39.9609 7.03125C40.0703 6.95312 40.2188 6.91406 40.4062 6.91406C40.5625 6.91406 40.7344 7.03906 40.9219 7.28906C41.125 7.52344 41.3281 7.82812 41.5312 8.20312C41.7344 8.5625 41.9297 8.96094 42.1172 9.39844C42.3203 9.83594 42.4922 10.2422 42.6328 10.6172C42.7891 10.9766 42.9141 11.2891 43.0078 11.5547C43.1016 11.8203 43.1562 11.9609 43.1719 11.9766C43.375 11.4297 43.6016 10.8359 43.8516 10.1953C44.1016 9.55469 44.4062 8.96094 44.7656 8.41406C45.1406 7.85156 45.5781 7.38281 46.0781 7.00781C46.5938 6.63281 47.2188 6.44531 47.9531 6.44531C48.3281 6.44531 48.6797 6.50781 49.0078 6.63281C49.3516 6.74219 49.6484 6.91406 49.8984 7.14844C50.1641 7.36719 50.375 7.63281 50.5312 7.94531C50.6875 8.25781 50.7656 8.61719 50.7656 9.02344C50.7656 9.36719 50.625 9.60938 50.3438 9.75C50.0781 9.89062 49.7734 9.96094 49.4297 9.96094H49.1953L48.1875 8.95312C48.1562 8.95312 48.1328 8.94531 48.1172 8.92969C48.0859 8.92969 48.0547 8.92969 48.0234 8.92969C48.0078 8.91406 47.9844 8.90625 47.9531 8.90625C47.4062 8.90625 46.9766 9.0625 46.6641 9.375C46.3672 9.67188 46.1406 10.0469 45.9844 10.5C45.8281 10.9375 45.7266 11.4062 45.6797 11.9062C45.6484 12.3906 45.6328 12.8359 45.6328 13.2422C45.6328 13.5547 45.6641 13.875 45.7266 14.2031C45.7891 14.5156 45.8594 14.8281 45.9375 15.1406C46.0156 15.4375 46.0859 15.75 46.1484 16.0781C46.2109 16.3906 46.2422 16.7188 46.2422 17.0625C46.2422 17.7188 45.8906 18.0469 45.1875 18.0469C44.7969 18.0469 44.3906 17.8438 43.9688 17.4375C43.5469 17.0156 43.125 16.4844 42.7031 15.8438C42.2969 15.2031 41.9062 14.5 41.5312 13.7344C41.1562 12.9531 40.8281 12.1953 40.5469 11.4609C40.2656 10.7266 40.0391 10.0625 39.8672 9.46875C39.7109 8.875 39.6328 8.4375 39.6328 8.15625ZM52.1719 4.73438C52.1719 4.28125 52.1406 3.84375 52.0781 3.42188C52.0156 2.98438 52 2.60156 52.0312 2.27344C52.0625 1.92969 52.1797 1.65625 52.3828 1.45312C52.6016 1.25 52.9922 1.14844 53.5547 1.14844C53.7266 1.50781 53.8906 2.05469 54.0469 2.78906C54.2188 3.52344 54.3828 4.36719 54.5391 5.32031C54.6953 6.27344 54.8438 7.3125 54.9844 8.4375C55.125 9.54688 55.25 10.6641 55.3594 11.7891C55.4844 12.9141 55.5859 14.0234 55.6641 15.1172C55.7578 16.1953 55.8281 17.1797 55.875 18.0703C55.3594 18.4141 54.9453 18.4375 54.6328 18.1406C54.3203 17.8438 54.0625 17.3438 53.8594 16.6406C53.6562 15.9219 53.5 15.0547 53.3906 14.0391C53.2812 13.0078 53.1719 11.9453 53.0625 10.8516C52.9688 9.74219 52.8516 8.65625 52.7109 7.59375C52.5703 6.51562 52.3906 5.5625 52.1719 4.73438ZM67.1719 14.9766C66.5781 15.3828 66.0625 15.75 65.625 16.0781C65.2031 16.3906 64.7891 16.6562 64.3828 16.875C63.9766 17.0938 63.5391 17.2578 63.0703 17.3672C62.6172 17.4766 62.0547 17.5312 61.3828 17.5312C59.9297 17.5312 58.8516 17.1484 58.1484 16.3828C57.4453 15.6016 57.0938 14.4453 57.0938 12.9141C57.0938 12.3203 57.1719 11.7031 57.3281 11.0625C57.4844 10.4219 57.7109 9.78906 58.0078 9.16406C58.3203 8.52344 58.6875 7.92188 59.1094 7.35938C59.5312 6.78125 60.0078 6.27344 60.5391 5.83594C61.0703 5.39844 61.6328 5.05469 62.2266 4.80469C62.8359 4.53906 63.4766 4.40625 64.1484 4.40625C65.2734 4.51562 66.1562 4.79688 66.7969 5.25C67.4375 5.6875 67.9219 6.25781 68.25 6.96094C68.5781 7.64844 68.8047 8.42188 68.9297 9.28125C69.0547 10.125 69.1484 11 69.2109 11.9062C69.2891 12.8125 69.3828 13.7188 69.4922 14.625C69.6016 15.5312 69.8281 16.3672 70.1719 17.1328C69.9688 17.6484 69.7734 18.0078 69.5859 18.2109C69.4141 18.4297 69.2188 18.4688 69 18.3281C68.7812 18.1875 68.5234 17.8438 68.2266 17.2969C67.9453 16.75 67.5938 15.9766 67.1719 14.9766ZM59.0859 12.9609C59.0859 13.8516 59.25 14.5078 59.5781 14.9297C59.9219 15.3359 60.5234 15.5391 61.3828 15.5391C62.0234 15.5391 62.6328 15.4297 63.2109 15.2109C63.8047 14.9766 64.3203 14.6641 64.7578 14.2734C65.1953 13.8672 65.5469 13.3828 65.8125 12.8203C66.0781 12.2578 66.2109 11.6328 66.2109 10.9453C66.2109 10.6641 66.2188 10.2734 66.2344 9.77344C66.25 9.25781 66.2188 8.75 66.1406 8.25C66.0625 7.75 65.9141 7.32031 65.6953 6.96094C65.4766 6.58594 65.1484 6.39844 64.7109 6.39844C63.8984 6.39844 63.1484 6.60938 62.4609 7.03125C61.7734 7.4375 61.1797 7.96094 60.6797 8.60156C60.1797 9.24219 59.7891 9.95312 59.5078 10.7344C59.2266 11.5 59.0859 12.2422 59.0859 12.9609Z" fill="#0A973A"/>
</svg>
