<svg width="11" height="11" viewBox="0 0 11 11" fill="none" xmlns="http://www.w3.org/2000/svg">
<g clip-path="url(#clip0_1_193)">
<path d="M5.18839 0.371338C3.09654 0.371338 1.39471 2.12265 1.39471 4.27531C1.39471 5.47942 1.99714 6.94092 3.18531 8.61921C4.05482 9.84745 4.91164 10.7234 4.94769 10.7601C5.01397 10.8276 5.10116 10.8614 5.18845 10.8614C5.27321 10.8614 5.35802 10.8295 5.42377 10.7655C5.45991 10.7303 6.3189 9.88978 7.19005 8.6785C8.37917 7.02506 8.9821 5.54363 8.9821 4.27529C8.98206 2.12265 7.28019 0.371338 5.18839 0.371338ZM5.18839 5.96071C4.1657 5.96071 3.33371 5.11962 3.33371 4.08579C3.33371 3.05196 4.16572 2.21087 5.18839 2.21087C6.21105 2.21087 7.04307 3.05196 7.04307 4.08579C7.04307 5.11962 6.21103 5.96071 5.18839 5.96071Z" fill="white"/>
</g>
<defs>
<clipPath id="clip0_1_193">
<rect width="10.3768" height="10.6286" fill="white" transform="translate(0 0.371338)"/>
</clipPath>
</defs>
</svg>
