<svg width="40" height="40" viewBox="0 0 40 40" fill="none" xmlns="http://www.w3.org/2000/svg">
<circle cx="20" cy="20" r="20" fill="white"/>
<path fill-rule="evenodd" clip-rule="evenodd" d="M24.1522 12.1812C24.4398 12.1812 24.6729 12.4144 24.6729 12.702C24.6729 12.9896 24.4398 13.2228 24.1522 13.2228C23.8646 13.2228 23.6314 12.9896 23.6314 12.702C23.6314 12.4144 23.8646 12.1812 24.1522 12.1812ZM24.1518 20.9551C26.0818 20.9551 27.6463 19.3906 27.6463 17.4607C27.6463 15.5307 26.0818 13.9662 24.1518 13.9662C22.2219 13.9662 20.6574 15.5307 20.6574 17.4607C20.6574 19.3906 22.2219 20.9551 24.1518 20.9551ZM28.9105 17.9817C29.1981 17.9817 29.4312 17.7486 29.4312 17.4609C29.4312 17.1733 29.1981 16.9402 28.9105 16.9402C28.6229 16.9402 28.3897 17.1733 28.3897 17.4609C28.3897 17.7486 28.6229 17.9817 28.9105 17.9817ZM27.8847 21.194C27.6813 21.3974 27.3516 21.3974 27.1483 21.194C26.9449 20.9907 26.9449 20.6609 27.1483 20.4576C27.3516 20.2542 27.6813 20.2542 27.8847 20.4576C28.0881 20.6609 28.0881 20.9907 27.8847 21.194ZM20.419 14.4647C20.6224 14.6681 20.9521 14.6681 21.1555 14.4647C21.3588 14.2613 21.3588 13.9316 21.1555 13.7282C20.9521 13.5249 20.6224 13.5249 20.419 13.7282C20.2156 13.9316 20.2156 14.2613 20.419 14.4647ZM27.1479 14.4643C26.9445 14.261 26.9445 13.9312 27.1479 13.7279C27.3512 13.5245 27.681 13.5245 27.8843 13.7279C28.0877 13.9312 28.0877 14.261 27.8843 14.4643C27.681 14.6677 27.3512 14.6677 27.1479 14.4643Z" fill="#FFD600"/>
<path fill-rule="evenodd" clip-rule="evenodd" d="M18.1382 19.626C17.3538 18.8524 16.3541 18.4284 15.3337 18.3538C15.4484 16.4518 17.0272 14.9448 18.958 14.9448C20.9611 14.9448 22.5854 16.5668 22.589 18.569L22.589 18.5764C22.589 18.6495 22.6079 18.7183 22.6411 18.778C22.7109 18.9835 22.9292 19.1022 23.1419 19.0453L23.1424 19.0451L23.1424 19.0452L23.1424 19.0451C25.0794 18.5261 27.0705 19.6756 27.5895 21.6127C28.1062 23.5411 26.9692 25.523 25.0478 26.0527C25.0389 26.0545 25.0301 26.0565 25.0213 26.0589C24.7996 26.1183 24.6681 26.3461 24.7275 26.5677C24.7869 26.7894 25.0147 26.9209 25.2363 26.8615L25.2443 26.8593C27.6195 26.2185 29.0281 23.7751 28.3912 21.3978C27.7955 19.1748 25.6219 17.796 23.3983 18.1438C23.181 15.8828 21.276 14.1149 18.958 14.1149C16.5632 14.1149 14.6091 16.002 14.5017 18.3703C13.5336 18.4799 12.5945 18.9059 11.852 19.6484C10.1099 21.3905 10.1099 24.215 11.852 25.9571L11.8521 25.957L11.8526 25.9575C12.0149 26.1197 12.2779 26.1197 12.4402 25.9575C12.6024 25.7952 12.6024 25.5322 12.4402 25.3699C12.433 25.3628 12.4257 25.3559 12.4181 25.3494C11.0209 23.9298 11.0278 21.6463 12.4388 20.2352C13.8568 18.8172 16.1559 18.8172 17.5739 20.2352L17.574 20.2351L17.5745 20.2356C17.7367 20.3979 17.9998 20.3979 18.162 20.2356C18.3243 20.0734 18.3243 19.8103 18.162 19.648C18.1543 19.6403 18.1463 19.633 18.1382 19.626Z" fill="#00AAD0"/>
<rect x="18.9092" y="22.5455" width="0.909091" height="2.36364" rx="0.454545" fill="url(#paint0_linear_203_599)"/>
<rect x="16.1818" y="23.8181" width="0.909091" height="2.36364" rx="0.454545" fill="url(#paint1_linear_203_599)"/>
<rect x="14.3636" y="25.6364" width="0.909091" height="2.36364" rx="0.454545" fill="url(#paint2_linear_203_599)"/>
<rect x="17.8182" y="26.3636" width="0.909091" height="2.36364" rx="0.454545" fill="url(#paint3_linear_203_599)"/>
<rect x="20.3637" y="27.6364" width="0.909091" height="2.36364" rx="0.454545" fill="url(#paint4_linear_203_599)"/>
<rect x="20.9091" y="24" width="0.909091" height="2.36364" rx="0.454545" fill="url(#paint5_linear_203_599)"/>
<rect x="22.9091" y="25.6364" width="0.909091" height="2.36364" rx="0.454545" fill="url(#paint6_linear_203_599)"/>
<defs>
<linearGradient id="paint0_linear_203_599" x1="19.3637" y1="22.5455" x2="19.3637" y2="24.9091" gradientUnits="userSpaceOnUse">
<stop stop-color="#89B9FF"/>
<stop offset="1" stop-color="#4B94FF"/>
</linearGradient>
<linearGradient id="paint1_linear_203_599" x1="16.6363" y1="23.8181" x2="16.6363" y2="26.1818" gradientUnits="userSpaceOnUse">
<stop stop-color="#89B9FF"/>
<stop offset="1" stop-color="#4B94FF"/>
</linearGradient>
<linearGradient id="paint2_linear_203_599" x1="14.8181" y1="25.6364" x2="14.8181" y2="28" gradientUnits="userSpaceOnUse">
<stop stop-color="#89B9FF"/>
<stop offset="1" stop-color="#4B94FF"/>
</linearGradient>
<linearGradient id="paint3_linear_203_599" x1="18.2728" y1="26.3636" x2="18.2728" y2="28.7273" gradientUnits="userSpaceOnUse">
<stop stop-color="#89B9FF"/>
<stop offset="1" stop-color="#4B94FF"/>
</linearGradient>
<linearGradient id="paint4_linear_203_599" x1="20.8183" y1="27.6364" x2="20.8183" y2="30" gradientUnits="userSpaceOnUse">
<stop stop-color="#89B9FF"/>
<stop offset="1" stop-color="#4B94FF"/>
</linearGradient>
<linearGradient id="paint5_linear_203_599" x1="21.3636" y1="24" x2="21.3636" y2="26.3637" gradientUnits="userSpaceOnUse">
<stop stop-color="#89B9FF"/>
<stop offset="1" stop-color="#4B94FF"/>
</linearGradient>
<linearGradient id="paint6_linear_203_599" x1="23.3637" y1="25.6364" x2="23.3637" y2="28" gradientUnits="userSpaceOnUse">
<stop stop-color="#89B9FF"/>
<stop offset="1" stop-color="#4B94FF"/>
</linearGradient>
</defs>
</svg>
