<svg width="44" height="44" viewBox="0 0 44 44" fill="none" xmlns="http://www.w3.org/2000/svg">
<g clip-path="url(#clip0_1_158)">
<path d="M11.4271 8.97671L8.87973 6.40155C8.17714 5.69037 7.03497 5.69037 6.33237 6.40155C5.62887 7.11272 5.62887 8.26554 6.33237 8.97671L8.87973 11.5519C9.23103 11.9079 9.69222 12.0855 10.1534 12.0855C10.6146 12.0855 11.0758 11.9079 11.4271 11.5519C12.1306 10.8407 12.1306 9.68789 11.4271 8.97671Z" fill="white"/>
<path d="M5.40459 20.0331H1.80153C0.807085 20.0331 0 20.849 0 21.8543C0 22.8596 0.807085 23.6755 1.80153 23.6755H5.40459C6.39903 23.6755 7.20612 22.8596 7.20612 21.8543C7.20612 20.849 6.39903 20.0331 5.40459 20.0331Z" fill="white"/>
<path d="M11.4271 32.1568C10.7245 31.4456 9.58233 31.4456 8.87973 32.1568L6.33237 34.732C5.62887 35.4431 5.62887 36.596 6.33237 37.3071C6.68367 37.6632 7.14486 37.8407 7.60605 37.8407C8.06725 37.8407 8.52844 37.6632 8.87973 37.3071L11.4271 34.732C12.1306 34.0208 12.1306 32.868 11.4271 32.1568Z" fill="white"/>
<path d="M21.6184 36.4238C20.6239 36.4238 19.8168 37.2397 19.8168 38.245V41.8874C19.8168 42.8927 20.6239 43.7086 21.6184 43.7086C22.6128 43.7086 23.4199 42.8927 23.4199 41.8874V38.245C23.4199 37.2397 22.6128 36.4238 21.6184 36.4238Z" fill="white"/>
<path d="M36.9043 34.732L34.357 32.1568C33.6544 31.4456 32.5122 31.4456 31.8096 32.1568C31.1061 32.868 31.1061 34.0208 31.8096 34.732L34.357 37.3071C34.7083 37.6632 35.1695 37.8407 35.6307 37.8407C36.0918 37.8407 36.553 37.6632 36.9043 37.3071C37.6078 36.596 37.6078 35.4431 36.9043 34.732Z" fill="white"/>
<path d="M41.4352 20.0331H37.8321C36.8377 20.0331 36.0306 20.849 36.0306 21.8543C36.0306 22.8596 36.8377 23.6755 37.8321 23.6755H41.4352C42.4296 23.6755 43.2367 22.8596 43.2367 21.8543C43.2367 20.849 42.4296 20.0331 41.4352 20.0331Z" fill="white"/>
<path d="M36.9043 6.40155C36.2017 5.69037 35.0596 5.69037 34.357 6.40155L31.8096 8.97671C31.1061 9.68789 31.1061 10.8407 31.8096 11.5519C32.1609 11.9079 32.6221 12.0855 33.0833 12.0855C33.5445 12.0855 34.0057 11.9079 34.357 11.5519L36.9043 8.97671C37.6078 8.26554 37.6078 7.11272 36.9043 6.40155Z" fill="white"/>
<path d="M21.6184 0C20.6239 0 19.8168 0.815894 19.8168 1.82119V5.46358C19.8168 6.46887 20.6239 7.28477 21.6184 7.28477C22.6128 7.28477 23.4199 6.46887 23.4199 5.46358V1.82119C23.4199 0.815894 22.6128 0 21.6184 0Z" fill="white"/>
<path d="M21.6183 10.0166C15.1616 10.0166 9.90839 15.3272 9.90839 21.8543C9.90839 28.3815 15.1616 33.6921 21.6183 33.6921C28.075 33.6921 33.3283 28.3815 33.3283 21.8543C33.3283 15.3272 28.075 10.0166 21.6183 10.0166ZM21.6183 30.0497C17.1487 30.0497 13.5114 26.3727 13.5114 21.8543C13.5114 17.336 17.1487 13.659 21.6183 13.659C26.0879 13.659 29.7252 17.336 29.7252 21.8543C29.7252 26.3727 26.0879 30.0497 21.6183 30.0497Z" fill="white"/>
</g>
<defs>
<clipPath id="clip0_1_158">
<rect width="43.2367" height="43.7086" fill="white"/>
</clipPath>
</defs>
</svg>
