<svg width="40" height="40" viewBox="0 0 40 40" fill="none" xmlns="http://www.w3.org/2000/svg">
<circle cx="20" cy="20" r="20" fill="white"/>
<path fill-rule="evenodd" clip-rule="evenodd" d="M20.8661 12.3076C20.8661 11.8365 20.4842 11.4546 20.0131 11.4546C19.542 11.4546 19.1601 11.8365 19.1601 12.3076C19.1601 12.7786 19.542 13.1605 20.0131 13.1605C20.4842 13.1605 20.8661 12.7786 20.8661 12.3076ZM25.7402 20.106C25.7402 23.2689 23.1761 25.833 20.0131 25.833C16.8501 25.833 14.286 23.2689 14.286 20.106C14.286 16.943 16.8501 14.3789 20.0131 14.3789C23.1761 14.3789 25.7402 16.943 25.7402 20.106ZM20.0131 26.9497C20.4842 26.9497 20.8661 27.3316 20.8661 27.8027C20.8661 28.2738 20.4842 28.6557 20.0131 28.6557C19.542 28.6557 19.1601 28.2738 19.1601 27.8027C19.1601 27.3316 19.542 26.9497 20.0131 26.9497ZM27.8118 20.959C28.2829 20.959 28.6648 20.5771 28.6648 20.106C28.6648 19.6349 28.2829 19.253 27.8118 19.253C27.3407 19.253 26.9589 19.6349 26.9589 20.106C26.9589 20.5771 27.3407 20.959 27.8118 20.959ZM12.968 20.106C12.968 20.5771 12.5861 20.959 12.115 20.959C11.6439 20.959 11.262 20.5771 11.262 20.106C11.262 19.6349 11.6439 19.253 12.115 19.253C12.5861 19.253 12.968 19.6349 12.968 20.106ZM24.9244 26.2235C25.2575 26.5566 25.7976 26.5566 26.1307 26.2235C26.4638 25.8904 26.4638 25.3503 26.1307 25.0172C25.7976 24.6841 25.2575 24.6841 24.9244 25.0172C24.5913 25.3503 24.5913 25.8904 24.9244 26.2235ZM15.102 15.1947C14.7689 15.5278 14.2288 15.5278 13.8957 15.1947C13.5626 14.8616 13.5626 14.3215 13.8957 13.9884C14.2288 13.6553 14.7689 13.6553 15.102 13.9884C15.4351 14.3215 15.4351 14.8616 15.102 15.1947ZM26.1306 15.1947C26.4637 14.8616 26.4637 14.3215 26.1306 13.9884C25.7975 13.6553 25.2574 13.6553 24.9243 13.9884C24.5912 14.3215 24.5912 14.8616 24.9243 15.1947C25.2574 15.5278 25.7975 15.5278 26.1306 15.1947ZM15.1022 25.0172C15.4353 25.3503 15.4353 25.8904 15.1022 26.2235C14.7691 26.5566 14.229 26.5566 13.8959 26.2235C13.5628 25.8904 13.5628 25.3503 13.8959 25.0172C14.229 24.6841 14.7691 24.6841 15.1022 25.0172Z" fill="url(#paint0_linear_1_206)"/>
<defs>
<linearGradient id="paint0_linear_1_206" x1="19.9634" y1="11.4546" x2="19.9634" y2="28.6557" gradientUnits="userSpaceOnUse">
<stop stop-color="#FFD600"/>
<stop offset="1" stop-color="#FFB800"/>
</linearGradient>
</defs>
</svg>
