<svg width="23" height="22" viewBox="0 0 23 22" fill="none" xmlns="http://www.w3.org/2000/svg">
<path fill-rule="evenodd" clip-rule="evenodd" d="M13.656 13.0625C14.1814 13.0622 14.6969 13.1996 15.1465 13.4598C15.5961 13.72 15.9626 14.0932 16.206 14.5388C16.4494 14.9843 16.5605 15.4851 16.5272 15.9868C16.4939 16.4885 16.3174 16.9719 16.017 17.3844C15.7166 17.7969 15.3038 18.1227 14.8233 18.3265C14.3429 18.5302 13.8132 18.6041 13.292 18.5401C12.7707 18.4761 12.2777 18.2767 11.8666 17.9635C11.4556 17.6502 11.1421 17.2352 10.9604 16.7635C10.8231 16.4073 11.0137 16.012 11.3862 15.8807C11.7587 15.7494 12.1719 15.9318 12.3092 16.288C12.4 16.5239 12.5568 16.7314 12.7623 16.888C12.9678 17.0446 13.2143 17.1443 13.475 17.1763C13.7356 17.2083 14.0004 17.1714 14.2406 17.0695C14.4809 16.9676 14.6873 16.8047 14.8375 16.5984C14.9877 16.3922 15.0759 16.1505 15.0926 15.8997C15.1092 15.6488 15.0537 15.3984 14.932 15.1756C14.8103 14.9529 14.627 14.7663 14.4022 14.6361C14.1774 14.506 13.9196 14.4373 13.6568 14.4375L3.59375 14.4375C3.1968 14.4375 2.875 14.1297 2.875 13.75C2.875 13.3703 3.1968 13.0625 3.59375 13.0625H13.656Z" fill="white"/>
<path fill-rule="evenodd" clip-rule="evenodd" d="M11.3656 4.93052C11.1254 4.82864 10.8606 4.79169 10.6 4.82369C10.3393 4.85569 10.0928 4.95541 9.8873 5.11202C9.68177 5.26863 9.52504 5.47614 9.43417 5.71198C9.29689 6.06825 8.88366 6.25061 8.5112 6.1193C8.13874 5.98799 7.94809 5.59273 8.08537 5.23646C8.26712 4.76477 8.58057 4.34977 8.99164 4.03655C9.40271 3.72333 9.89568 3.52388 10.417 3.45988C10.9382 3.39588 11.4679 3.46978 11.9483 3.67355C12.4288 3.87731 12.8416 4.20315 13.142 4.61564C13.4424 5.02813 13.6189 5.51149 13.6522 6.01319C13.6855 6.51488 13.5744 7.01571 13.331 7.46124C13.0876 7.90677 12.7211 8.27995 12.2715 8.54023C11.822 8.8004 11.3066 8.9378 10.7813 8.9375H2.15625C1.7593 8.9375 1.4375 8.6297 1.4375 8.25C1.4375 7.87031 1.7593 7.5625 2.15625 7.5625H10.7813C11.044 7.5627 11.3024 7.494 11.5272 7.36386C11.752 7.23373 11.9353 7.04714 12.057 6.82437C12.1787 6.60161 12.2342 6.35119 12.2176 6.10034C12.2009 5.8495 12.1127 5.60782 11.9625 5.40157C11.8123 5.19533 11.6059 5.03241 11.3656 4.93052Z" fill="white"/>
<path fill-rule="evenodd" clip-rule="evenodd" d="M19.2719 7.68052C19.0317 7.57864 18.7668 7.54169 18.5062 7.57369C18.2456 7.60569 17.9991 7.70541 17.7936 7.86202C17.588 8.01863 17.4313 8.22614 17.3404 8.46198C17.2031 8.81825 16.7899 9.00061 16.4174 8.8693C16.045 8.73799 15.8543 8.34273 15.9916 7.98646C16.1734 7.51477 16.4868 7.09977 16.8979 6.78655C17.309 6.47333 17.8019 6.27388 18.3232 6.20988C18.8445 6.14588 19.3741 6.21978 19.8546 6.42355C20.335 6.62731 20.7479 6.95315 21.0483 7.36564C21.3487 7.77813 21.5251 8.26149 21.5584 8.76319C21.5917 9.26488 21.4807 9.76571 21.2372 10.2112C20.9938 10.6568 20.6274 11.03 20.1777 11.2902C19.7282 11.5504 19.2128 11.6878 18.6874 11.6875C18.6872 11.6875 18.6876 11.6875 18.6874 11.6875H2.875C2.47805 11.6875 2.15625 11.3797 2.15625 11C2.15625 10.6203 2.47805 10.3125 2.875 10.3125H18.6875C18.9503 10.3127 19.2087 10.244 19.4335 10.1139C19.6583 9.98373 19.8415 9.79714 19.9632 9.57437C20.0849 9.3516 20.1405 9.10119 20.1238 8.85034C20.1072 8.5995 20.0189 8.35782 19.8687 8.15157C19.7185 7.94533 19.5121 7.78241 19.2719 7.68052Z" fill="white"/>
</svg>
